<mxfile host="Electron" modified="2023-10-06T16:01:16.069Z" agent="Mozilla/5.0 (X11; Linux x86_64) AppleWebKit/537.36 (KHTML, like Gecko) draw.io/21.2.8 Chrome/112.0.5615.165 Electron/24.2.0 Safari/537.36" etag="wM2ZoipVX7JBQycE0Oiw" version="21.2.8" type="device">
  <diagram name="Page-1" id="3VwctWfy0AH0uU6ITWoZ">
    <mxGraphModel dx="1114" dy="857" grid="1" gridSize="10" guides="1" tooltips="1" connect="1" arrows="1" fold="1" page="1" pageScale="1" pageWidth="827" pageHeight="1169" math="0" shadow="0">
      <root>
        <mxCell id="0" />
        <mxCell id="1" parent="0" />
        <mxCell id="jWVI6NIS-3oCFHRtdI_j-1" value="" style="ellipse;whiteSpace=wrap;html=1;aspect=fixed;" parent="1" vertex="1">
          <mxGeometry x="370" y="31" width="60" height="60" as="geometry" />
        </mxCell>
        <mxCell id="jWVI6NIS-3oCFHRtdI_j-2" value="" style="endArrow=none;html=1;rounded=0;" parent="1" edge="1">
          <mxGeometry width="50" height="50" relative="1" as="geometry">
            <mxPoint x="40" y="60" as="sourcePoint" />
            <mxPoint x="40" y="780" as="targetPoint" />
          </mxGeometry>
        </mxCell>
        <mxCell id="jWVI6NIS-3oCFHRtdI_j-3" value="" style="ellipse;whiteSpace=wrap;html=1;aspect=fixed;" parent="1" vertex="1">
          <mxGeometry x="370" y="748" width="60" height="60" as="geometry" />
        </mxCell>
        <mxCell id="jWVI6NIS-3oCFHRtdI_j-4" value="" style="ellipse;whiteSpace=wrap;html=1;aspect=fixed;" parent="1" vertex="1">
          <mxGeometry x="370" y="651" width="60" height="60" as="geometry" />
        </mxCell>
        <mxCell id="jWVI6NIS-3oCFHRtdI_j-5" value="" style="ellipse;whiteSpace=wrap;html=1;aspect=fixed;" parent="1" vertex="1">
          <mxGeometry x="370" y="451" width="60" height="60" as="geometry" />
        </mxCell>
        <mxCell id="jWVI6NIS-3oCFHRtdI_j-6" value="" style="ellipse;whiteSpace=wrap;html=1;aspect=fixed;" parent="1" vertex="1">
          <mxGeometry x="130" y="550" width="60" height="60" as="geometry" />
        </mxCell>
        <mxCell id="jWVI6NIS-3oCFHRtdI_j-7" value="" style="ellipse;whiteSpace=wrap;html=1;aspect=fixed;fillColor=#000000;" parent="1" vertex="1">
          <mxGeometry x="35" y="773" width="10" height="10" as="geometry" />
        </mxCell>
        <mxCell id="jWVI6NIS-3oCFHRtdI_j-8" value="" style="ellipse;whiteSpace=wrap;html=1;aspect=fixed;fillColor=#000000;" parent="1" vertex="1">
          <mxGeometry x="35" y="676" width="10" height="10" as="geometry" />
        </mxCell>
        <mxCell id="jWVI6NIS-3oCFHRtdI_j-9" value="" style="ellipse;whiteSpace=wrap;html=1;aspect=fixed;fillColor=#000000;" parent="1" vertex="1">
          <mxGeometry x="35" y="476" width="10" height="10" as="geometry" />
        </mxCell>
        <mxCell id="jWVI6NIS-3oCFHRtdI_j-10" value="" style="ellipse;whiteSpace=wrap;html=1;aspect=fixed;fillColor=#CCCCCC;strokeColor=#CCCCCC;" parent="1" vertex="1">
          <mxGeometry x="35" y="575" width="10" height="10" as="geometry" />
        </mxCell>
        <mxCell id="jWVI6NIS-3oCFHRtdI_j-11" value="" style="ellipse;whiteSpace=wrap;html=1;aspect=fixed;fillColor=#CCCCCC;strokeColor=#CCCCCC;" parent="1" vertex="1">
          <mxGeometry x="35" y="374" width="10" height="10" as="geometry" />
        </mxCell>
        <mxCell id="jWVI6NIS-3oCFHRtdI_j-12" value="" style="ellipse;whiteSpace=wrap;html=1;aspect=fixed;" parent="1" vertex="1">
          <mxGeometry x="130" y="349" width="60" height="60" as="geometry" />
        </mxCell>
        <mxCell id="jWVI6NIS-3oCFHRtdI_j-13" value="" style="ellipse;whiteSpace=wrap;html=1;aspect=fixed;" parent="1" vertex="1">
          <mxGeometry x="130" y="149" width="60" height="60" as="geometry" />
        </mxCell>
        <mxCell id="jWVI6NIS-3oCFHRtdI_j-14" value="" style="ellipse;whiteSpace=wrap;html=1;aspect=fixed;fillColor=#CCCCCC;strokeColor=#CCCCCC;" parent="1" vertex="1">
          <mxGeometry x="35" y="174" width="10" height="10" as="geometry" />
        </mxCell>
        <mxCell id="jWVI6NIS-3oCFHRtdI_j-15" value="" style="ellipse;whiteSpace=wrap;html=1;aspect=fixed;" parent="1" vertex="1">
          <mxGeometry x="610" y="550" width="60" height="60" as="geometry" />
        </mxCell>
        <mxCell id="jWVI6NIS-3oCFHRtdI_j-16" value="" style="ellipse;whiteSpace=wrap;html=1;aspect=fixed;" parent="1" vertex="1">
          <mxGeometry x="610" y="349" width="60" height="60" as="geometry" />
        </mxCell>
        <mxCell id="jWVI6NIS-3oCFHRtdI_j-17" value="" style="ellipse;whiteSpace=wrap;html=1;aspect=fixed;" parent="1" vertex="1">
          <mxGeometry x="610" y="149" width="60" height="60" as="geometry" />
        </mxCell>
      </root>
    </mxGraphModel>
  </diagram>
</mxfile>
